<svg id="Layer_1" data-name="Layer 1" xmlns="http://www.w3.org/2000/svg" xmlns:xlink="http://www.w3.org/1999/xlink" viewBox="0 0 405.63 137.47"><defs><style>.cls-1{fill:url(#New_Gradient_Swatch_1);}.cls-2{fill:url(#New_Gradient_Swatch_1-2);}.cls-3{fill:url(#New_Gradient_Swatch_1-3);}.cls-4{fill:url(#New_Gradient_Swatch_1-4);}.cls-5{fill:url(#New_Gradient_Swatch_1-5);}.cls-6{fill:none;}.cls-7{fill:url(#New_Gradient_Swatch_1-6);}.cls-8{fill:url(#New_Gradient_Swatch_1-7);}.cls-9{fill:url(#New_Gradient_Swatch_1-8);}.cls-10{fill:url(#New_Gradient_Swatch_1-9);}.cls-11{fill:url(#New_Gradient_Swatch_1-10);}.cls-12{fill:url(#New_Gradient_Swatch_1-11);}.cls-13{fill:url(#New_Gradient_Swatch_1-12);}.cls-14{fill:url(#New_Gradient_Swatch_1-13);}.cls-15{fill:url(#New_Gradient_Swatch_1-14);}.cls-16{fill:url(#New_Gradient_Swatch_1-15);}.cls-17{fill:url(#New_Gradient_Swatch_1-16);}.cls-18{fill:url(#New_Gradient_Swatch_1-17);}</style><linearGradient id="New_Gradient_Swatch_1" x1="-3.86" y1="99.62" x2="48.07" y2="9.67" gradientTransform="matrix(1, 0, 0, -1, 0, 139.79)" gradientUnits="userSpaceOnUse"><stop offset="0" stop-color="#ec2024"/><stop offset="0.68" stop-color="#811517"/></linearGradient><linearGradient id="New_Gradient_Swatch_1-2" x1="88.79" y1="71.64" x2="123.87" y2="10.89" xlink:href="#New_Gradient_Swatch_1"/><linearGradient id="New_Gradient_Swatch_1-3" x1="77.74" y1="152.92" x2="131.2" y2="60.32" xlink:href="#New_Gradient_Swatch_1"/><linearGradient id="New_Gradient_Swatch_1-4" x1="32.98" y1="119.66" x2="76.4" y2="44.44" xlink:href="#New_Gradient_Swatch_1"/><linearGradient id="New_Gradient_Swatch_1-5" x1="110.32" y1="121.04" x2="115.05" y2="112.86" xlink:href="#New_Gradient_Swatch_1"/><linearGradient id="New_Gradient_Swatch_1-6" x1="205.5" y1="17.13" x2="185.05" y2="52.54" gradientTransform="matrix(1, 0, 0, 1, 0, 0)" xlink:href="#New_Gradient_Swatch_1"/><linearGradient id="New_Gradient_Swatch_1-7" x1="243.55" y1="19.85" x2="222.47" y2="56.36" gradientTransform="matrix(1, 0, 0, 1, 0, 0)" xlink:href="#New_Gradient_Swatch_1"/><linearGradient id="New_Gradient_Swatch_1-8" x1="281.82" y1="24.03" x2="262.03" y2="58.3" gradientTransform="matrix(1, 0, 0, 1, 0, 0)" xlink:href="#New_Gradient_Swatch_1"/><linearGradient id="New_Gradient_Swatch_1-9" x1="317.71" y1="27.3" x2="300.24" y2="57.55" gradientTransform="matrix(1, 0, 0, 1, 0, 0)" xlink:href="#New_Gradient_Swatch_1"/><linearGradient id="New_Gradient_Swatch_1-10" x1="351.9" y1="30.42" x2="334.81" y2="60.02" gradientTransform="matrix(1, 0, 0, 1, 0, 0)" xlink:href="#New_Gradient_Swatch_1"/><linearGradient id="New_Gradient_Swatch_1-11" x1="375.17" y1="22.73" x2="357.48" y2="53.36" gradientTransform="matrix(1, 0, 0, 1, 0, 0)" xlink:href="#New_Gradient_Swatch_1"/><linearGradient id="New_Gradient_Swatch_1-12" x1="399.39" y1="28.8" x2="380.42" y2="61.66" gradientTransform="matrix(1, 0, 0, 1, 0, 0)" xlink:href="#New_Gradient_Swatch_1"/><linearGradient id="New_Gradient_Swatch_1-13" x1="267.36" y1="67.67" x2="245.37" y2="105.76" gradientTransform="matrix(1, 0, 0, 1, 0, 0)" xlink:href="#New_Gradient_Swatch_1"/><linearGradient id="New_Gradient_Swatch_1-14" x1="288.04" y1="69.09" x2="270.82" y2="98.93" gradientTransform="matrix(1, 0, 0, 1, 0, 0)" xlink:href="#New_Gradient_Swatch_1"/><linearGradient id="New_Gradient_Swatch_1-15" x1="322.17" y1="74.7" x2="306.15" y2="102.45" gradientTransform="matrix(1, 0, 0, 1, 0, 0)" xlink:href="#New_Gradient_Swatch_1"/><linearGradient id="New_Gradient_Swatch_1-16" x1="359.5" y1="71.92" x2="343.38" y2="99.85" gradientTransform="matrix(1, 0, 0, 1, 0, 0)" xlink:href="#New_Gradient_Swatch_1"/><linearGradient id="New_Gradient_Swatch_1-17" x1="395.64" y1="78.94" x2="369.76" y2="123.76" gradientTransform="matrix(1, 0, 0, 1, 0, 0)" xlink:href="#New_Gradient_Swatch_1"/></defs><title>banner</title><path class="cls-1" d="M.06,72.24a74.73,74.73,0,0,1,15.2-42.7,2.91,2.91,0,0,1,1.32-1.12c2.18-.64,1.31,3.39,1.22,4.29a52.9,52.9,0,0,1-1.91,9.23C14.12,48.08,11.67,54,10.14,60.2A62.58,62.58,0,0,0,8.33,76.5c.08,4.24-.88,13.2,2.78,16.17A1.89,1.89,0,0,0,12,90.93a97.07,97.07,0,0,1,6.75-31.68c1.61-4,2.79,1.58,3.08,3q.8,3.93,1.89,7.8a109.57,109.57,0,0,0,22.69,42c2.42,2.77,5,5.42,7.21,8.36h0c1,1.3,3.48,3.75,1.77,5.39a4.11,4.11,0,0,1-3.44.75c-4.37-.59-8-3.6-11.11-6.72-8-8-13.46-17.21-18.25-27.31a1.57,1.57,0,0,0-.72-.87c-1.75-.71-1.95,10.82-1.88,12.1a96.45,96.45,0,0,0,2,13.73c.31,1.56,3.22,10.42,1.78,11.41s-4.77-3.4-5.63-4.4A75.44,75.44,0,0,1,.06,72.24Z"/><path class="cls-2" d="M140.36,39.35a27,27,0,0,0-7.89,3.72c8.29,16.52,11.16,34.72,5.26,52.61-.95,2.88-6,12-9.49,6.68-2-3.13-3.81-6.48-6.59-9a11.87,11.87,0,0,0-5.85-2.93c-2.15-.36-5.45-.24-5.89,2.44s-1.1,6-.4,8.75c.09.34.28.7.68.59a2.62,2.62,0,0,0,1.13-1,10.51,10.51,0,0,1,1.43-1.4,6.49,6.49,0,0,1,3.71-1.61.3.3,0,0,1,.27.16.46.46,0,0,1,0,.2,52.31,52.31,0,0,1-.87,8.66c-.29,1.46-.64,2.91-1,4.34-.31,1.07-.62,3.09-1.41,3.85a23.22,23.22,0,0,1-2.77-3.52c-.89-1.15-1.78-2.3-2.69-3.44a79.54,79.54,0,0,0-5.79-6.52c-3.87-3.83-9.29-8.28-14.86-9.16-.33,1.84.31,4,.37,5.87s0,3.92-.1,5.88c0,3.89-1,7.81-1.69,11.63a60.35,60.35,0,0,1-8.45-5.82,1.16,1.16,0,0,1-.32-.34.37.37,0,0,1-.24-.33,12.25,12.25,0,0,1,.91-4.42,4.62,4.62,0,0,0,.22-2.05,2.7,2.7,0,0,0-.59-1.24c-.66-.3-1.42-.47-2-.68a34.4,34.4,0,0,0-4.79-1.46,18.84,18.84,0,0,0-4-.44c-1,0-1,.25-1,1.11,0,1-.08,2.09-.11,3.13L65.4,110,65,122.52c-.07,2.16-.22,4.59-1.86,6.2-1.36,1.35-3.37,1.82-5.1,2.52-.28.11-.6.3-.61.6s.35.52.65.64l7.86,3.15c1,.38,2.89,1.62,3.91,1.52,1.17-.13,1.12-1.44,1.36-2.42.33-1.4,4.26-15.71,3.79-15.94a24.84,24.84,0,0,1,5.25,3.34c1.19,1,3.47,2.18,3.33,4-.08,1.07-.94,1.92-1.21,3a1.14,1.14,0,0,0,0,.58,1.41,1.41,0,0,0,.28.51c1.84,2.44,3.67,4.9,5.56,7.31a24.45,24.45,0,0,0,3.64-6.91,61.84,61.84,0,0,0,3.66-16.15c.2-2.17-.31-7.68,3.07-3.84a50.16,50.16,0,0,1,7.78,12.23c2,4.37,3,9,4.79,13.45,1.43-.5,2.65-2.74,3.45-4a65.8,65.8,0,0,0,5.62-10.75q1.15-2.81,2-5.71c.19-.63,1-5.11,1.72-5.52a.2.2,0,0,1,.22,0h0a6.84,6.84,0,0,1,2.52,7.46c-.33,1.07-.94,2-1.26,3.13a3.24,3.24,0,0,0,.53,3.18,2.74,2.74,0,0,0,1.86.7,6.58,6.58,0,0,0,4.31-2.13c5.36-4.93,9-11.94,11.65-18.62a81.56,81.56,0,0,0,5.17-20C150.84,68.81,148.69,52.46,140.36,39.35Z"/><path class="cls-3" d="M157.05,13.94a24.23,24.23,0,0,0-7.11-3.57,174.09,174.09,0,0,0-36.33-8.85,176.23,176.23,0,0,0-36.3-1c-11.87.9-24.23,2.58-35.34,7,1.27,1.71,3.59,2.2,5.71,2.41,11.18,1.07,23.84-3.85,34,2.88-1.54,1.61-3.75,2.33-5.82,3.13A48.71,48.71,0,0,0,57.24,28.52a3.78,3.78,0,0,0-.8,1.19,1.33,1.33,0,0,0,.21,1.36,2,2,0,0,0,1.9.25c2.78-.58,5.54-1.25,8.29-1.94a64.42,64.42,0,0,1,7.91-2c-3.61,3.9-7.2,7.59-10.17,12-2.77,4.16-6,8.93-6.5,14a1.92,1.92,0,0,0,.5,1.75,1.42,1.42,0,0,0,1.27.15A4,4,0,0,0,61,54.69a72.91,72.91,0,0,0,8.38-8.2c-.57.62-.77,2.46-1,3.28q-.56,1.78-1.08,3.57c-.68,2.29-1.33,4.59-1.91,6.91s-1.1,4.64-1.52,7c-.35,2-1,4.23-.5,6.22a1.76,1.76,0,0,0,.91,1.32,1.93,1.93,0,0,0,1.82-.62c2.48-2.14,4-5,6.07-7.59,2.79-3.51,6.38-6.07,9.36-9.39a3.5,3.5,0,0,0,1-1.8,1.37,1.37,0,0,0-1-1.59,2.12,2.12,0,0,0-1.08.32l-5.35,2.77a28.55,28.55,0,0,0-4.84,2.92,63.86,63.86,0,0,1,3.67-11.55c.42-.92,6.08-10.31,6.27-10.1-1.35-1.49-3.84-1-5.54.07-.69.43-5,4.28-5.41,2.22s2.2-4.55,3.44-5.7c1.61-1.47,3.46-2.65,5.14-4,1.27-1.05,2.54-2.1,3.71-3.26.31-.31,3.27-3.37,3-3.64-1.43-1.58-3.93-1.36-6-1l-9.41,1.55c.1,0,.33-.38.4-.46s.33-.36.5-.53c.33-.33.67-.65,1-.95a30.43,30.43,0,0,1,15.67-6.68,14.28,14.28,0,0,0,2.56-.63c.68-.23,1.83-.63,1.91-1.47A2.28,2.28,0,0,0,90.36,12a18.39,18.39,0,0,0-1.44-1.35.36.36,0,0,1,0-.5h0a.16.16,0,0,0-.1,0L89,10a.49.49,0,0,1,.17-.06A39.67,39.67,0,0,1,93,8.84c17-4.37,35.29-1.48,51.7,4a33,33,0,0,1,10.1,4.91c1.9,1.48,3.63,3.95,2.62,6.12-.6,1.29-2,2-3.27,2.62L123.44,41.22c-4.77,2.28-9.92,5-11.93,9.86S111.2,61.27,113.32,66a77.2,77.2,0,0,0,4.51,8.53A12.5,12.5,0,0,0,120.65,78c3.59,2.82,8.79,1.47,13.12,0C127.3,72.48,121,65.83,119.54,57.47c-.6-3.35-.28-7.09,1.92-9.68a15.92,15.92,0,0,1,5.7-3.72l29-13.46a3,3,0,0,1,1.42-.38c1.84.12,1.86,3,3.33,4.12C162.75,28,162.71,18.51,157.05,13.94Z"/><path class="cls-4" d="M33.71,19.73c.24-.08.51.07.78.57,2.3,4.25,4.86,8.18,4.86,13.16a91.94,91.94,0,0,0,.22,16,84,84,0,0,0,9.07,29.82,5,5,0,0,0,1.91,2.29c1.25.64,2.75.15,4.08-.3a71.39,71.39,0,0,1,22.63-3.74c5.46,0,19.17-.18,22.92,4.09-3.12,1.54-9.39.23-13,.32a62.92,62.92,0,0,0-14,1.74,71.94,71.94,0,0,0-17.61,7c-2.08,1.17-6.12,5.23-8.33,5.48-2.68.31-3.57-3.06-4.67-5a94.05,94.05,0,0,1-4.66-9.38,96.26,96.26,0,0,1-6.18-20.67,114,114,0,0,1-2-21.88,62.93,62.93,0,0,1,1.08-11.13A38.51,38.51,0,0,1,32.15,23C32.4,22.23,33,20,33.71,19.73Z"/><path class="cls-5" d="M122.82,20.13a1.11,1.11,0,0,1-.07.26,2.1,2.1,0,0,1-.45.65,30.5,30.5,0,0,1-7.53,6.05.34.34,0,0,1-.24.07c-.13,0-.2-.17-.23-.3a3.53,3.53,0,0,1,1.43-3.47,10.29,10.29,0,0,1,3.63-1.59,12.34,12.34,0,0,0-6.53.74,1.37,1.37,0,0,0-.92.78c-.2.71.69,1.25.88,2a1.51,1.51,0,0,1-.59,1.47,3.71,3.71,0,0,1-1.55.63,18.49,18.49,0,0,1-5,.43c-2.64-.14-4.13-1.86-2.1-4.08A20.42,20.42,0,0,1,116,17.33a8.25,8.25,0,0,1,5.78,1.05A2,2,0,0,1,122.82,20.13Z"/><circle class="cls-6" cx="75.29" cy="75.27" r="2.02"/><circle class="cls-6" cx="26.8" cy="78.63" r="2.02"/><path class="cls-7" d="M198.09,60.07a18.06,18.06,0,0,1-1.68-4.61c-.45-1.89-.83-3.85-1.14-5.9s-.56-4-.75-5.8-.39-3.24-.58-4.29V27.17a2.09,2.09,0,0,1,.65-1.46A1.91,1.91,0,0,1,196,25h.64c.19,1.29.33,2.61.43,4s.18,2.7.25,4a32.06,32.06,0,0,0,.47,4,20.51,20.51,0,0,0,.93,3.86,16,16,0,0,0,2.5.43q1.29,0,3,.15a15.31,15.31,0,0,0,4-.61,15.89,15.89,0,0,0,4-1.75,11.12,11.12,0,0,0,3.11-2.83,6.1,6.1,0,0,0,1.26-3.75,6,6,0,0,0-1.51-4,14.35,14.35,0,0,0-3.86-3.11A29.78,29.78,0,0,0,206.1,23a47.84,47.84,0,0,0-5.61-1.61q-2.76-.62-5.11-.9a32.52,32.52,0,0,0-3.65-.28c-.29,0-.81,0-1.58-.08s-1.6-.05-2.53,0-1.83.08-2.69.18a4.91,4.91,0,0,0-2,.57,3.33,3.33,0,0,0-1.18,1.29c-.36.62-.7,1.25-1,1.89a10.81,10.81,0,0,1-1,1.68,1.5,1.5,0,0,1-1.18.72h-.15a.71.71,0,0,1-.21-.07.41.41,0,0,1-.21-.22,3.16,3.16,0,0,1-.18-.71,13.47,13.47,0,0,1-.18-1.65c0-.71-.07-1.69-.07-2.93a2,2,0,0,1,.75-1.47,6.73,6.73,0,0,1,2-1.18,25.5,25.5,0,0,1,2.68-.89c.95-.26,1.87-.48,2.75-.64s1.67-.3,2.36-.4,1.16-.14,1.4-.14c1.62,0,3.51.1,5.68.29a54.48,54.48,0,0,1,6.73,1,50.11,50.11,0,0,1,6.86,2,26.52,26.52,0,0,1,6,3.07,16.33,16.33,0,0,1,4.37,4.4,10.62,10.62,0,0,1,1.64,5.93,6.57,6.57,0,0,1-.86,4.47A13,13,0,0,1,216.58,41a24,24,0,0,1-4.76,2.79,34.58,34.58,0,0,1-5.15,1.86,26.81,26.81,0,0,1-4.5.86,6.12,6.12,0,0,1-2.79-.18V47a28,28,0,0,0,.43,4.94,28.87,28.87,0,0,1,.43,4.93c0,.19,0,.49-.07.9a4.1,4.1,0,0,1-.33,1.17,2.61,2.61,0,0,1-.64.94A1.25,1.25,0,0,1,198.09,60.07Z"/><path class="cls-8" d="M245.51,58.78c.09-1.24.19-2.52.28-3.86s.18-2.67.25-4,.12-2.65.15-3.94,0-2.45,0-3.5a14.55,14.55,0,0,0-.64-4.36,11.07,11.07,0,0,0-1.86-3.62,8.85,8.85,0,0,0-3-2.43,9.84,9.84,0,0,0-4.33-.89,9.21,9.21,0,0,0-1.71.14,6.47,6.47,0,0,0-1.43.47,16.2,16.2,0,0,0-1.58.82c-.57.38-1.24.83-2,1.36a5.18,5.18,0,0,1,0,.53c0,.27,0,.42,0,.47a36.82,36.82,0,0,0,.32,4.18q.31,2.61.68,5.44c.24,1.88.48,3.71.72,5.47a34.72,34.72,0,0,1,.35,4.29v.57q0,.44,0,.93c0,.34,0,.64,0,.93v.64a2.17,2.17,0,0,1-1,1.26,3.94,3.94,0,0,1-1.46.25c-.57.09-1-.31-1.29-1.22a19.32,19.32,0,0,1-.64-3.93q-.23-2.58-.4-6.22c-.12-2.44-.28-5.11-.5-8s-.52-6-.93-9.26-1-6.62-1.75-10c-.38-1.34-.68-2.47-.89-3.4s-.42-1.76-.61-2.5-.36-1.5-.5-2.29-.31-1.73-.5-2.83V9.94a.69.69,0,0,1,.36-.54,5.7,5.7,0,0,1,.82-.46,4.27,4.27,0,0,1,.93-.32,3.06,3.06,0,0,1,.75-.11c.9,2.38,1.63,4.4,2.18,6s1,3.06,1.32,4.26a29.7,29.7,0,0,1,.72,3c.14.81.26,1.6.36,2.36s.16,1.55.21,2.36.14,1.79.29,2.93a15.3,15.3,0,0,1,6.76-2.5,10.72,10.72,0,0,1,5.39.89,11.09,11.09,0,0,1,4.12,3.4,21.83,21.83,0,0,1,2.89,5.15,33.21,33.21,0,0,1,1.76,6.08,50.33,50.33,0,0,1,.78,6.22,30.32,30.32,0,0,1-.14,5.54,16.31,16.31,0,0,1-1,4.08,2.7,2.7,0,0,1-1.71,1.79C247.15,60.27,246.36,59.83,245.51,58.78Z"/><path class="cls-9" d="M254.73,45.48a13.32,13.32,0,0,1,1.72-6.87,15.93,15.93,0,0,1,4.5-4.93,20,20,0,0,1,6.26-3,26,26,0,0,1,7-1,8.7,8.7,0,0,1,3.47.68,12.84,12.84,0,0,1,3.08,1.86A15.25,15.25,0,0,1,283.34,35a21.71,21.71,0,0,1,2,3.19,16,16,0,0,1,1.25,3.32,13,13,0,0,1,.44,3.26,14.2,14.2,0,0,1-5.3,11.33,17.58,17.58,0,0,1-5.5,3,19.36,19.36,0,0,1-6.3,1,16.8,16.8,0,0,1-6-1,14.64,14.64,0,0,1-4.79-2.89,12.76,12.76,0,0,1-3.18-4.61A15.7,15.7,0,0,1,254.73,45.48Zm3.51-.57a11.17,11.17,0,0,0,.82,4.25,10.75,10.75,0,0,0,2.29,3.54,11.1,11.1,0,0,0,3.47,2.4,10.3,10.3,0,0,0,4.29.89,7.26,7.26,0,0,0,3-.39A16.41,16.41,0,0,0,275.58,54a20.12,20.12,0,0,0,3.36-2.51,14.71,14.71,0,0,0,2.68-3.21,9.11,9.11,0,0,0,1.32-3.65,6.62,6.62,0,0,0-.64-3.79,10.22,10.22,0,0,0-3.25-3.65A25.85,25.85,0,0,0,272.54,34a18.59,18.59,0,0,0-4.9.68,15.85,15.85,0,0,0-4.61,2,11.75,11.75,0,0,0-3.44,3.44A8.58,8.58,0,0,0,258.24,44.91Zm3.57-19.74a1.9,1.9,0,0,1,.36-.86c.24-.38.51-.78.82-1.21A5.1,5.1,0,0,1,264,22a1.27,1.27,0,0,1,.86-.43,4.54,4.54,0,0,1,2,.4,4.11,4.11,0,0,1,1.33,1,4.19,4.19,0,0,1,.75,1.29,4.32,4.32,0,0,1,.25,1.36,1.74,1.74,0,0,1-.36,1,4.61,4.61,0,0,1-.93,1,6,6,0,0,1-1.25.78,3.18,3.18,0,0,1-1.4.32,2.72,2.72,0,0,1-1.43-.39,4.2,4.2,0,0,1-1.07-.93,4.78,4.78,0,0,1-.68-1.14A2.77,2.77,0,0,1,261.81,25.17Zm11.44,0a2,2,0,0,1,.33-.86,8.48,8.48,0,0,1,.85-1.21A7.86,7.86,0,0,1,275.51,22a1.59,1.59,0,0,1,.89-.43,4.15,4.15,0,0,1,1.86.4,4.68,4.68,0,0,1,1.32,1,3.78,3.78,0,0,1,.79,1.29,4.05,4.05,0,0,1,.25,1.36,1.74,1.74,0,0,1-.36,1,4.93,4.93,0,0,1-.89,1,4.82,4.82,0,0,1-1.29.78,3.44,3.44,0,0,1-1.39.32,2.69,2.69,0,0,1-1.43-.39,4.08,4.08,0,0,1-1.08-.93,5.13,5.13,0,0,1-.68-1.14A3,3,0,0,1,273.25,25.17Z"/><path class="cls-10" d="M290.42,40.9a22.75,22.75,0,0,1,1.11-7.11,18.06,18.06,0,0,1,3.21-6,15.93,15.93,0,0,1,5.15-4.12,15.5,15.5,0,0,1,7.05-1.53,11,11,0,0,1,4.11,1.28,9.32,9.32,0,0,1,2.86,2.47,9.63,9.63,0,0,1,1.61,3.4,18.1,18.1,0,0,1,.43,4,7.73,7.73,0,0,1-1.5,4.65,12.88,12.88,0,0,1-3.79,3.47,19.83,19.83,0,0,1-4.94,2.15,18.14,18.14,0,0,1-4.93.75H299a4.26,4.26,0,0,1-1.6-.29,2.63,2.63,0,0,1-1.15-.86,2.87,2.87,0,0,1-.43-1.71,1.58,1.58,0,0,1,.11-.61c.07-.17.27-.29.61-.36a6.15,6.15,0,0,1,1.5,0l2.72.43a9.24,9.24,0,0,0,2.89-.68,26.13,26.13,0,0,0,3.86-1.75,15.46,15.46,0,0,0,3.4-2.46,3.93,3.93,0,0,0,1.43-2.76,8.86,8.86,0,0,0-.46-2.82,7.3,7.3,0,0,0-3.58-4.19,5.08,5.08,0,0,0-2.82-.5A11.19,11.19,0,0,0,301,27.1a11.4,11.4,0,0,0-3.47,3,14,14,0,0,0-3,8.69c0,1.24,0,2.48.07,3.72a17.11,17.11,0,0,0,.54,3.64,12.16,12.16,0,0,0,1.5,3.44,9.4,9.4,0,0,0,3,2.89,18,18,0,0,0,5,2.08,34.79,34.79,0,0,0,7.44,1l12.8-.85a9.21,9.21,0,0,1-2.9,2.57,18.67,18.67,0,0,1-3.72,1.61,25.43,25.43,0,0,1-3.9.89,24.94,24.94,0,0,1-3.64.29,22.06,22.06,0,0,1-7.8-1.36,20.33,20.33,0,0,1-6.44-3.82,17.67,17.67,0,0,1-4.39-6A19,19,0,0,1,290.42,40.9Z"/><path class="cls-11" d="M328.89,32.18a.78.78,0,0,1,.47-.82,2.82,2.82,0,0,1,1-.18.76.76,0,0,1,.61.21,1.31,1.31,0,0,1,.25.5,2.11,2.11,0,0,0,.22.54.51.51,0,0,0,.5.25,5.28,5.28,0,0,0,2.43-.79l3.11-1.71a36.92,36.92,0,0,1,3.57-1.72,9.88,9.88,0,0,1,3.76-.79,8.34,8.34,0,0,1,4.47,1.26A13.74,13.74,0,0,1,353,32.25a22.19,22.19,0,0,1,2.75,4.65,41.86,41.86,0,0,1,1.93,5.25,34.9,34.9,0,0,1,1.14,5.23,31.79,31.79,0,0,1,.36,4.39c0,.43,0,1.08-.11,1.93a25.35,25.35,0,0,1-.35,2.58,6.83,6.83,0,0,1-.83,2.25,1.64,1.64,0,0,1-1.43,1,4.44,4.44,0,0,1-.5,0,3.57,3.57,0,0,1-.71-.14,3.21,3.21,0,0,1-.61-.25.47.47,0,0,1-.25-.43,41.48,41.48,0,0,0,0-10.33,36.69,36.69,0,0,0-2.07-8.48A17.33,17.33,0,0,0,348.77,34a6.13,6.13,0,0,0-4.43-2.15,11.79,11.79,0,0,0-4.15.72,9.79,9.79,0,0,0-3.36,2.07A9.68,9.68,0,0,0,334.58,38a10.66,10.66,0,0,0-.83,4.22,24.67,24.67,0,0,0,.43,4.54c.29,1.5.61,3,1,4.51s.68,3,1,4.54a25.34,25.34,0,0,1,.42,4.58,4.2,4.2,0,0,1-3.36-1.65A12.69,12.69,0,0,1,331,54.49a35.77,35.77,0,0,1-1.29-5.79q-.46-3.23-.64-6.33c-.12-2.07-.18-4-.18-5.86Z"/><path class="cls-12" d="M361.36,17.38c0-.58.17-.95.5-1.11a2.82,2.82,0,0,1,1.29-.25,1.91,1.91,0,0,1,1.32.6,6.58,6.58,0,0,1,1.36,1.54,3.74,3.74,0,0,1,.61,1.58c0,.57-.31.9-1.08,1H365a8.93,8.93,0,0,1-1.79-.15,2.48,2.48,0,0,1-1.11-.46,1.89,1.89,0,0,1-.57-1A6.9,6.9,0,0,1,361.36,17.38Zm3.65,18V34.25c0-.52,0-1.07,0-1.64s0-1.12,0-1.65V29.89c-.19-1.48.24-2.22,1.28-2.22a2,2,0,0,1,1.22.36,3.57,3.57,0,0,1,.93,1.07,34.82,34.82,0,0,0,.32,7.19c.36,2.31.76,4.6,1.22,6.87s.88,4.54,1.29,6.83a41.38,41.38,0,0,1,.6,7.15,3.86,3.86,0,0,1-.6,2,2,2,0,0,1-1.83,1c-.62,0-1.15-.54-1.61-1.61a22.5,22.5,0,0,1-1.18-4.07c-.33-1.65-.62-3.47-.86-5.48s-.41-3.92-.53-5.75-.2-3.48-.25-4.94S365,35.85,365,35.33Z"/><path class="cls-13" d="M401.41,63.79a36,36,0,0,1-3.58-3.51q-1.65-1.86-3.36-3.75c-1.14-1.26-2.31-2.46-3.5-3.58a19.69,19.69,0,0,0-4-2.89,2.73,2.73,0,0,0-1.82.68,9.15,9.15,0,0,0-1.61,1.78A18.55,18.55,0,0,0,382.06,55c-.45.88-.88,1.7-1.28,2.46s-.78,1.43-1.11,2a2.21,2.21,0,0,1-.93,1c-.91,0-1.36-.5-1.36-1.36a7.49,7.49,0,0,1,1.07-3.83,26.65,26.65,0,0,1,2.4-3.43c.88-1.07,1.68-2.07,2.39-3a4.29,4.29,0,0,0,1.07-2.54.4.4,0,0,0,0-.15.23.23,0,0,1,0-.14l-2.79-2.64c-1.05-1-2.1-2.07-3.18-3.19s-2.06-2.25-3-3.39a17.2,17.2,0,0,1-2.07-3.15,1.15,1.15,0,0,1,0-.86,1.44,1.44,0,0,1,.46-.46,1.57,1.57,0,0,1,.64-.22l.58,0a10.47,10.47,0,0,1,3.39,2.07c1.08,1,2.11,2,3.11,3l3,3.08a12.79,12.79,0,0,0,2.9,2.29A8,8,0,0,0,390.54,41q1.79-1.24,3.72-2.82T398.05,35a22.34,22.34,0,0,1,3.43-2.5,5,5,0,0,1,2.64-.82c.72.05,1.22.67,1.51,1.86,0,.24-.33.63-1,1.18s-1.44,1.2-2.39,2-2,1.58-3.22,2.44-2.35,1.69-3.47,2.5-2.15,1.61-3.08,2.39a24.88,24.88,0,0,0-2.11,2c1,1,2.18,2.05,3.54,3.29s2.71,2.56,4,4a50.72,50.72,0,0,1,3.69,4.33,18.44,18.44,0,0,1,2.46,4.14,9.05,9.05,0,0,1-.71,1.43,1.41,1.41,0,0,1-1.29.72,2.31,2.31,0,0,1-.39,0Z"/><path class="cls-14" d="M263.36,100.45l-.9,0-.82,0a19,19,0,0,0-4.11.47c-1.41.31-2.81.63-4.19,1s-2.77.66-4.18,1a20.09,20.09,0,0,1-4.33.47,13.73,13.73,0,0,1-5.43-1,11.91,11.91,0,0,1-4.15-2.9,12.82,12.82,0,0,1-2.64-4.4,15.75,15.75,0,0,1-.94-5.54A14.41,14.41,0,0,1,233,83.28a23.28,23.28,0,0,1,3.65-5.54A32.7,32.7,0,0,1,241.94,73a42.51,42.51,0,0,1,6.18-3.79,41.21,41.21,0,0,1,6.44-2.58,32.76,32.76,0,0,1,6-1.25,7.21,7.21,0,0,1,5,1.36,5.39,5.39,0,0,1,1.5,1.83,5.3,5.3,0,0,1,.58,2.53,7.32,7.32,0,0,1-1.94-.25c-.61-.16-1.23-.35-1.85-.57a16.72,16.72,0,0,0-1.94-.53,9,9,0,0,0-2-.22,21.4,21.4,0,0,0-5.43.75,27.31,27.31,0,0,0-5.62,2.18,33.11,33.11,0,0,0-5.22,3.4,27.48,27.48,0,0,0-4.36,4.33,20.41,20.41,0,0,0-3,5.07,14.69,14.69,0,0,0-1.11,5.58,6.5,6.5,0,0,0,1,3.58,9,9,0,0,0,2.5,2.61A11.74,11.74,0,0,0,242,98.55a12.08,12.08,0,0,0,3.51.54q3.14,0,6.47-.18a23.54,23.54,0,0,0,6-1.07A10,10,0,0,0,262.43,95a7.93,7.93,0,0,0,1.71-5.43,10.81,10.81,0,0,0-.14-1.36,2.3,2.3,0,0,0-.64-1.5H250.27a2,2,0,0,1-1-.29,4.08,4.08,0,0,1-.89-.75,3.43,3.43,0,0,1-.65-1,2.88,2.88,0,0,1-.21-1,5.5,5.5,0,0,1,.14-1.18.78.78,0,0,1,.86-.61,4.49,4.49,0,0,1,1.43.25l1.43.5,1.43.5a4.46,4.46,0,0,0,1.5.25,29,29,0,0,0,4.94-.42,28.35,28.35,0,0,1,5-.43,2.65,2.65,0,0,1,1.22.32,4.89,4.89,0,0,1,1.14.78,4.52,4.52,0,0,1,.86,1.11,2.53,2.53,0,0,1,.36,1.22v17.88a6.32,6.32,0,0,0,.5.43l.72.6.71.65c.24.21.41.37.5.46a1.22,1.22,0,0,1-.11,1,3.39,3.39,0,0,1-.68.86,3.74,3.74,0,0,1-1,.64,2.29,2.29,0,0,1-1,.25,2.93,2.93,0,0,1-2.32-.93,6.19,6.19,0,0,1-1.25-2.22,9.56,9.56,0,0,1-.5-2.68C263.38,101.91,263.36,101.11,263.36,100.45Z"/><path class="cls-15" d="M279,103.66a38.28,38.28,0,0,1-2.72-6.22,68,68,0,0,1-1.93-6.79c-.53-2.29-.94-4.52-1.25-6.69s-.52-4.13-.61-5.9c0-.33,0-.7-.07-1.11a7.36,7.36,0,0,1,0-1.25,5.19,5.19,0,0,1,.22-1.21,2.34,2.34,0,0,1,.6-1h.15s.07,0,.07,0,0,0,.07,0,.07,0,.07,0,.05,0,.15,0h.14l.71.28a2.53,2.53,0,0,1,.72.36,27.68,27.68,0,0,0,2.64-1q1.37-.6,2.76-1.14a24.28,24.28,0,0,1,2.82-.9,11.84,11.84,0,0,1,2.79-.35c.67,0,1.25,0,1.75.07a11.18,11.18,0,0,1,1.5.25c.5.12,1,.26,1.61.43l2,.61c.38.28.72.56,1,.82a6.05,6.05,0,0,1,.86.89,3.68,3.68,0,0,1,.61,1.22,6.71,6.71,0,0,1,.21,1.86,8.55,8.55,0,0,1-2.68-.18c-1-.22-2.1-.49-3.22-.82s-2.27-.62-3.46-.86a14.2,14.2,0,0,0-3.44-.29,7.3,7.3,0,0,0-5.72,3.51,15,15,0,0,0-.43,4.07,21.67,21.67,0,0,0,.5,3.9A33.88,33.88,0,0,0,278.55,90c.45,1.26.88,2.53,1.29,3.79s.77,2.51,1.11,3.75a21.29,21.29,0,0,1,.64,3.79,2.32,2.32,0,0,1-.79,1.54A2.4,2.4,0,0,1,279,103.66Z"/><path class="cls-16" d="M297.9,89.08a13.39,13.39,0,0,1,1.71-6.87,16,16,0,0,1,4.51-4.93,19.44,19.44,0,0,1,6.26-3,25.6,25.6,0,0,1,7-1,8.91,8.91,0,0,1,3.47.68,13.12,13.12,0,0,1,3.07,1.86,14.64,14.64,0,0,1,2.61,2.72,21.69,21.69,0,0,1,2,3.18,16.88,16.88,0,0,1,1.25,3.33,12.92,12.92,0,0,1,.43,3.25,14.15,14.15,0,0,1-5.29,11.34,17.63,17.63,0,0,1-5.51,3,19.61,19.61,0,0,1-6.29,1,17,17,0,0,1-6-1,14.71,14.71,0,0,1-4.8-2.9A12.68,12.68,0,0,1,299,95.19,15.8,15.8,0,0,1,297.9,89.08Zm3.5-.58a11.25,11.25,0,0,0,.82,4.26,10.75,10.75,0,0,0,2.29,3.54A11.14,11.14,0,0,0,308,98.69a10.38,10.38,0,0,0,4.29.9,7.67,7.67,0,0,0,3-.39,16.39,16.39,0,0,0,3.5-1.58,20,20,0,0,0,3.36-2.5,14.81,14.81,0,0,0,2.69-3.22,9.37,9.37,0,0,0,1.32-3.65,6.72,6.72,0,0,0-.64-3.79,10.06,10.06,0,0,0-3.26-3.64,25.49,25.49,0,0,0-6.51-3.26,19.13,19.13,0,0,0-4.9.68,15.61,15.61,0,0,0-4.61,2,11.92,11.92,0,0,0-3.43,3.43A8.53,8.53,0,0,0,301.4,88.5Z"/><path class="cls-17" d="M359.68,93.29a11.44,11.44,0,0,0-2.82,2.26c-.79.88-1.59,1.71-2.4,2.5a13.65,13.65,0,0,1-2.68,2A7.38,7.38,0,0,1,348,101a9.68,9.68,0,0,1-4.65-1.11,12.41,12.41,0,0,1-3.68-3,20.06,20.06,0,0,1-2.79-4.29A30.54,30.54,0,0,1,335,87.61a39.19,39.19,0,0,1-1.15-5,28.77,28.77,0,0,1-.39-4.47,12.93,12.93,0,0,1,.21-6,5,5,0,0,1,1.9-2.79,1.38,1.38,0,0,1,1.89.29c.53.59.6,1.63.22,3.11a2.78,2.78,0,0,0-.22.89c0,.41-.09.82-.14,1.25s-.1.84-.14,1.22a6.77,6.77,0,0,0-.07.79,26,26,0,0,0,.28,3.54A35.76,35.76,0,0,0,339.8,89a18.86,18.86,0,0,0,2.22,3.9,11.52,11.52,0,0,0,3,2.79,6.75,6.75,0,0,0,3.68,1.07,5.07,5.07,0,0,0,2.93-1.25,19.11,19.11,0,0,0,3.11-3,22.76,22.76,0,0,0,2.51-3.61,6.8,6.8,0,0,0,1-3.14c0-.48,0-1.27,0-2.36s0-2.27,0-3.51,0-2.41,0-3.5,0-1.86,0-2.29a4.08,4.08,0,0,1,.93-1.11,1.94,1.94,0,0,1,1.22-.39c.57,0,1.05.38,1.43,1.14a11.91,11.91,0,0,1,.93,2.93,31.1,31.1,0,0,1,.5,3.87c.1,1.38.17,2.71.22,4s.09,2.42.14,3.4a10.27,10.27,0,0,0,.21,2,27.44,27.44,0,0,0,1,3.22c.45,1.19.89,2.35,1.32,3.47s.81,2.15,1.15,3.08a7,7,0,0,1,.5,2.1c0,.72-.21,1.15-.61,1.29a4.52,4.52,0,0,1-1.54.22,2.22,2.22,0,0,1-1.68-.57,3.52,3.52,0,0,1-.79-1.47,16.35,16.35,0,0,1-.39-2,17.43,17.43,0,0,0-.46-2.21,9,9,0,0,0-.93-2.15A4.68,4.68,0,0,0,359.68,93.29Z"/><path class="cls-18" d="M370.34,94.3a16.48,16.48,0,0,1,1.57-7.58,13.51,13.51,0,0,1,4.19-4.94,17.76,17.76,0,0,1,6.08-2.72,30.18,30.18,0,0,1,7.25-.85,18.17,18.17,0,0,1,6,1A17.7,17.7,0,0,1,400.59,82a13.49,13.49,0,0,1,3.65,4.36,12.42,12.42,0,0,1,1.36,5.86,9.12,9.12,0,0,1-1.08,4.69,7.67,7.67,0,0,1-2.93,2.86,13.48,13.48,0,0,1-4.11,1.46,24.26,24.26,0,0,1-4.61.43c-1.53,0-3.09-.07-4.69-.21a16.37,16.37,0,0,1-4.4-1,7.88,7.88,0,0,1-3.28-2.36,6.83,6.83,0,0,1-1.29-4.44,7.24,7.24,0,0,1,2.89.61c.93.41,1.88.84,2.83,1.29s1.91.87,2.86,1.25a6.72,6.72,0,0,0,2.93.64,29,29,0,0,0,3-.21,15.84,15.84,0,0,0,3.58-.82,8.88,8.88,0,0,0,2.89-1.69A3.46,3.46,0,0,0,401.45,92a8.09,8.09,0,0,0-1.07-4.22,9.65,9.65,0,0,0-2.79-3A13.78,13.78,0,0,0,393.72,83a14.84,14.84,0,0,0-4.29-.65c-.19,0-.65.05-1.39.15s-1.59.25-2.54.46-2,.48-3,.79a16.84,16.84,0,0,0-2.9,1.14,8.86,8.86,0,0,0-2.18,1.54,2.68,2.68,0,0,0-.86,1.93v.86c.05.52.11,1.23.18,2.11s.13,1.76.18,2.64.12,1.66.21,2.33.15,1,.15,1.14c.09.77.26,2,.5,3.54s.5,3.39.79,5.37.6,4.06,1,6.25.7,4.28,1,6.26.63,3.76.89,5.33.47,2.72.61,3.43a.9.9,0,0,0,0,.25.66.66,0,0,1,0,.25l-.07.15v.14a6.62,6.62,0,0,1-.64.71,6.51,6.51,0,0,0-.72.58h-.43c-.48,0-1-.45-1.5-1.33a21.39,21.39,0,0,1-1.61-3.57q-.82-2.25-1.65-5.19c-.54-2-1.08-4-1.6-6.08s-1-4.17-1.43-6.22-.82-4-1.15-5.72-.58-3.29-.75-4.58A23.72,23.72,0,0,1,370.34,94.3Z"/></svg>